<svg width="211" height="32" viewBox="0 0 211 32" fill="none" xmlns="http://www.w3.org/2000/svg">
<path d="M52.5959 15.8565C38.9319 36.2562 14.2982 34.5242 1.59644 16.2414L16.4151 8.35087C23.9679 14.9208 30.8489 16.4338 36.8149 7.58107L52.5959 15.8565Z" fill="url(#paint0_linear_111_2)"/>
<path d="M27.5775 2L1.78906 15.8565" stroke="#81CB50" stroke-width="2.77514" stroke-linecap="round"/>
<path d="M36.6226 8.15842C31.237 16.2994 20.6919 14.5154 16.5588 8.50361" stroke="#81CB50" stroke-width="2.77514" stroke-linecap="round"/>
<path d="M1.40405 16.1436C12.8014 34.5547 39.103 37.0597 52.3791 16.3941" stroke="#81CB50" stroke-width="2.00393" stroke-linecap="round"/>
<path d="M47.2072 13.547C42.0722 22.189 36.4728 25.4118 25.3259 25.4118M42.0111 10.4678C37.6445 16.7719 34.4866 18.7711 25.5764 19.4" stroke="#81CB50" stroke-width="2.00393" stroke-linecap="round"/>
<path d="M70.5471 9.23309H77.7893C78.844 9.23309 79.7581 9.34735 80.5315 9.57587C81.3049 9.80438 81.9465 10.1354 82.4563 10.569C82.9661 10.9968 83.344 11.5212 83.5901 12.1423C83.842 12.7634 83.968 13.4636 83.968 14.2429C83.968 14.9753 83.845 15.652 83.5989 16.2731C83.3528 16.8942 82.9749 17.4333 82.4651 17.8903C81.9612 18.3415 81.3225 18.696 80.5491 18.9538C79.7756 19.2057 78.8616 19.3317 77.8069 19.3317L73.3333 19.3229V22.9704H70.5471V9.23309ZM77.8596 16.9147C78.387 16.9147 78.8469 16.8532 79.2395 16.7302C79.6379 16.6013 79.969 16.4225 80.2327 16.194C80.5022 15.9597 80.7014 15.6784 80.8303 15.3503C80.9651 15.0163 81.0325 14.6472 81.0325 14.2429C81.0325 13.4284 80.7659 12.7956 80.2327 12.3444C79.7053 11.8874 78.9143 11.6589 77.8596 11.6589H73.3333V16.9147H77.8596ZM93.3224 9.23309H96.2755L102.92 22.9704H99.9933L98.8947 20.6589H90.8702L89.8068 22.9704H86.8712L93.3224 9.23309ZM97.796 18.3649L94.8253 12.1247L91.9337 18.3649H97.796ZM106.676 9.23309H113.663C114.718 9.23309 115.632 9.34442 116.405 9.56708C117.179 9.78387 117.82 10.1003 118.33 10.5163C118.84 10.9323 119.218 11.4391 119.464 12.0368C119.716 12.6345 119.842 13.3112 119.842 14.0671C119.842 14.5768 119.78 15.0632 119.657 15.5261C119.534 15.9831 119.344 16.405 119.086 16.7917C118.834 17.1784 118.515 17.5241 118.128 17.8288C117.741 18.1276 117.287 18.3766 116.766 18.5759L119.754 22.9704H116.344L113.76 19.0681H113.681L109.462 19.0593V22.9704H106.676V9.23309ZM113.733 16.6511C114.261 16.6511 114.721 16.5895 115.113 16.4665C115.512 16.3434 115.843 16.1706 116.106 15.9479C116.376 15.7253 116.575 15.4557 116.704 15.1393C116.839 14.8171 116.906 14.4597 116.906 14.0671C116.906 13.2995 116.643 12.7077 116.115 12.2917C115.588 11.8698 114.794 11.6589 113.733 11.6589H109.462V16.6511H113.733ZM124.415 9.23309H127.219V22.9704H124.415V9.23309ZM132.407 9.23309H135.193L140.185 14.2429L145.178 9.23309H147.964V22.9704H145.178V13.0915L140.185 17.8991L135.193 13.0915V22.9704H132.407V9.23309ZM153.143 9.23309H155.947V22.9704H153.143V9.23309ZM165.266 11.6765H160.195V9.23309H173.124V11.6765H168.052V22.9704H165.266V11.6765ZM177.723 9.23309H184.71C185.765 9.23309 186.679 9.34442 187.453 9.56708C188.226 9.78387 188.868 10.1003 189.377 10.5163C189.887 10.9323 190.265 11.4391 190.511 12.0368C190.763 12.6345 190.889 13.3112 190.889 14.0671C190.889 14.5768 190.828 15.0632 190.704 15.5261C190.581 15.9831 190.391 16.405 190.133 16.7917C189.881 17.1784 189.562 17.5241 189.175 17.8288C188.788 18.1276 188.334 18.3766 187.813 18.5759L190.801 22.9704H187.391L184.807 19.0681H184.728L180.509 19.0593V22.9704H177.723V9.23309ZM184.781 16.6511C185.308 16.6511 185.768 16.5895 186.161 16.4665C186.559 16.3434 186.89 16.1706 187.154 15.9479C187.423 15.7253 187.622 15.4557 187.751 15.1393C187.886 14.8171 187.954 14.4597 187.954 14.0671C187.954 13.2995 187.69 12.7077 187.163 12.2917C186.635 11.8698 185.841 11.6589 184.781 11.6589H180.509V16.6511H184.781ZM200.498 9.23309H203.451L210.096 22.9704H207.169L206.071 20.6589H198.046L196.983 22.9704H194.047L200.498 9.23309ZM204.972 18.3649L202.001 12.1247L199.11 18.3649H204.972Z" fill="white"/>
<defs>
<linearGradient id="paint0_linear_111_2" x1="43.7431" y1="10.2754" x2="37.0074" y2="19.3206" gradientUnits="userSpaceOnUse">
<stop stop-color="#504F50" stop-opacity="0"/>
<stop offset="1" stop-color="#4F4F4F"/>
</linearGradient>
</defs>
</svg>
