<svg width="13" height="18" viewBox="0 0 13 18" fill="none" xmlns="http://www.w3.org/2000/svg">
<path d="M6.24686 0C9.69111 0 12.4932 2.80246 12.4932 6.2468C12.4932 9.56228 6.82579 17.3084 6.58447 17.6364L6.35926 17.9429C6.33292 17.9789 6.29099 18 6.24686 18C6.20206 18 6.16039 17.9789 6.13378 17.9429L5.9087 17.6364C5.66726 17.3084 1.52588e-05 9.56228 1.52588e-05 6.2468C1.52588e-05 2.80246 2.80252 0 6.24686 0ZM6.24686 4.00921C5.01278 4.00921 4.00927 5.01276 4.00927 6.2468C4.00927 7.48021 5.01282 8.4844 6.24686 8.4844C7.48022 8.4844 8.48446 7.48021 8.48446 6.2468C8.48446 5.01276 7.48027 4.00921 6.24686 4.00921Z" fill="#81CB50"/>
</svg>
